<svg width="24" height="24" viewBox="0 0 24 24" fill="none" xmlns="http://www.w3.org/2000/svg">
<path d="M20 9.27273C20 10.3043 19.5318 11.6877 18.7067 13.2726C17.8965 14.8289 16.8049 16.4631 15.6961 17.9621C14.5898 19.4575 13.4813 20.7986 12.6482 21.7668C12.4063 22.048 12.1879 22.2974 12 22.5094C11.8121 22.2974 11.5937 22.048 11.3518 21.7668C10.5187 20.7986 9.41016 19.4575 8.30395 17.9621C7.19506 16.4631 6.10346 14.8289 5.29325 13.2726C4.46816 11.6877 4 10.3043 4 9.27273C4 4.67548 7.60965 1 12 1C16.3903 1 20 4.67548 20 9.27273Z" stroke="#7775FF" stroke-width="2"/>
<circle cx="12" cy="9" r="3" stroke="#7775FF" stroke-width="2"/>
</svg>
