<svg width="20" height="20" viewBox="0 0 20 20" fill="none" xmlns="http://www.w3.org/2000/svg">
<mask id="path-1-inside-1_3_2" fill="white">
<path fill-rule="evenodd" clip-rule="evenodd" d="M3 16.2V15.8H3.02072C3.14869 14.5672 3.86501 13.4035 5.05025 12.523C6.36301 11.5479 8.14349 11 10 11C11.8565 11 13.637 11.5479 14.9497 12.523C16.135 13.4035 16.8513 14.5672 16.9793 15.8H17V16.2V19H3V16.2Z"/>
</mask>
<path d="M3 15.8V13.8H1V15.8H3ZM3.02072 15.8V17.8H4.82386L5.01004 16.0065L3.02072 15.8ZM5.05025 12.523L6.2429 14.1285L5.05025 12.523ZM14.9497 12.523L16.1424 10.9176L16.1424 10.9176L14.9497 12.523ZM16.9793 15.8L14.99 16.0065L15.1761 17.8H16.9793V15.8ZM17 15.8H19V13.8H17V15.8ZM17 19V21H19V19H17ZM3 19H1V21H3V19ZM5 16.2V15.8H1V16.2H5ZM3 17.8H3.02072V13.8H3V17.8ZM3.85761 10.9176C2.31051 12.0668 1.22766 13.703 1.03141 15.5935L5.01004 16.0065C5.06973 15.4314 5.4195 14.7402 6.2429 14.1285L3.85761 10.9176ZM10 9C7.77458 9 5.56096 9.65221 3.85761 10.9176L6.2429 14.1285C7.16506 13.4435 8.51239 13 10 13V9ZM16.1424 10.9176C14.439 9.65221 12.2254 9 10 9V13C11.4876 13 12.8349 13.4435 13.7571 14.1285L16.1424 10.9176ZM18.9686 15.5935C18.7723 13.703 17.6895 12.0668 16.1424 10.9176L13.7571 14.1285C14.5805 14.7402 14.9303 15.4314 14.99 16.0065L18.9686 15.5935ZM16.9793 17.8H17V13.8H16.9793V17.8ZM15 15.8V16.2H19V15.8H15ZM15 16.2V19H19V16.2H15ZM17 17H3V21H17V17ZM5 19V16.2H1V19H5Z" fill="black" mask="url(#path-1-inside-1_3_2)"/>
<circle cx="10" cy="6" r="3" stroke="black" stroke-width="2"/>
</svg>
