<svg width="24" height="24" viewBox="0 0 24 24" fill="none" xmlns="http://www.w3.org/2000/svg">
<g clip-path="url(#clip0_1_2)">
<circle cx="12" cy="12" r="11" stroke="black" stroke-width="2"/>
<mask id="path-2-inside-1_1_2" fill="white">
<path fill-rule="evenodd" clip-rule="evenodd" d="M17.9749 21C17.9915 20.8347 18 20.6679 18 20.5C18 17.5821 15.4373 15 12 15C8.56274 15 6 17.5821 6 20.5C6 20.6679 6.00849 20.8347 6.02514 21H4.0175C4.00589 20.8347 4 20.668 4 20.5C4 16.3579 7.58172 13 12 13C16.4183 13 20 16.3579 20 20.5C20 20.668 19.9941 20.8347 19.9825 21H17.9749Z"/>
</mask>
<path d="M17.9749 21L15.9849 20.7995L15.7632 23H17.9749V21ZM6.02514 21V23H8.23679L8.01506 20.7995L6.02514 21ZM4.0175 21L2.02241 21.1401L2.15299 23H4.0175V21ZM19.9825 21V23H21.847L21.9776 21.1401L19.9825 21ZM19.9648 21.2005C19.9881 20.9691 20 20.7353 20 20.5H16C16 20.6005 15.9949 20.7004 15.9849 20.7995L19.9648 21.2005ZM20 20.5C20 16.3702 16.4314 13 12 13V17C14.4431 17 16 18.7939 16 20.5H20ZM12 13C7.56861 13 4 16.3702 4 20.5H8C8 18.7939 9.55688 17 12 17V13ZM4 20.5C4 20.7354 4.0119 20.9691 4.03522 21.2005L8.01506 20.7995C8.00508 20.7004 8 20.6005 8 20.5H4ZM4.0175 23H6.02514V19H4.0175V23ZM2 20.5C2 20.7148 2.00753 20.9282 2.02241 21.1401L6.01258 20.8599C6.00425 20.7412 6 20.6212 6 20.5H2ZM12 11C6.6007 11 2 15.1337 2 20.5H6C6 17.5821 8.56274 15 12 15V11ZM22 20.5C22 15.1337 17.3993 11 12 11V15C15.4373 15 18 17.5821 18 20.5H22ZM21.9776 21.1401C21.9925 20.9282 22 20.7148 22 20.5H18C18 20.6212 17.9957 20.7412 17.9874 20.8599L21.9776 21.1401ZM17.9749 23H19.9825V19H17.9749V23Z" fill="black" mask="url(#path-2-inside-1_1_2)"/>
<circle cx="12" cy="8" r="3" stroke="black" stroke-width="2"/>
</g>
<defs>
<clipPath id="clip0_1_2">
<rect width="24" height="24" fill="white"/>
</clipPath>
</defs>
</svg>
